<svg width="115" height="34" viewBox="0 0 115 34" fill="none" xmlns="http://www.w3.org/2000/svg">
<path fill-rule="evenodd" clip-rule="evenodd" d="M70.78 8.58678C72.6445 9.51425 74.1572 10.7852 75.3884 12.4341C76.6197 14.0142 77.4288 15.8692 77.8158 17.8959C77.8861 18.5829 77.9565 19.3043 77.9917 20.0943C77.9917 20.8501 77.9213 21.5714 77.8158 22.2928H56.2863C56.814 24.1821 57.8342 25.6936 59.382 26.8615C60.9299 28.0638 62.6888 28.6477 64.7292 28.6477C65.9605 28.6477 67.1214 28.4073 68.1768 27.9951C69.2321 27.5142 70.1819 26.8958 70.9559 26.1401L73.735 29.5752C72.5389 30.6401 71.167 31.4989 69.6543 32.1172C68.1064 32.7355 66.4882 33.0447 64.7292 33.0447C62.5481 33.0447 60.5781 32.5637 58.7136 31.6019C56.8491 30.6744 55.3365 29.4035 54.1052 27.789C52.8622 26.1859 52.0531 24.3539 51.6778 22.2928C51.6075 21.6401 51.5371 20.9188 51.502 20.0943C51.502 19.4073 51.5723 18.686 51.6778 17.8959C52.0648 15.8692 52.8739 14.0142 54.07 12.4341C55.313 10.8081 56.8609 9.5257 58.7136 8.58678C60.5781 7.6593 62.5481 7.14404 64.7292 7.14404C66.9103 7.14404 68.9155 7.6593 70.78 8.58678ZM59.382 13.3272C57.8342 14.4951 56.814 16.0409 56.2863 17.8959H73.2073C72.6796 16.0409 71.6243 14.4951 70.1116 13.3272C68.5637 12.1593 66.7696 11.5753 64.7292 11.5753C62.6888 11.5753 60.9299 12.1593 59.382 13.3272Z" fill="#6768AC"/>
<path d="M85.3439 0V33.0456H80.8411V0H85.3439Z" fill="#6768AC"/>
<path fill-rule="evenodd" clip-rule="evenodd" d="M108.422 8.93029C110.427 10.0982 112.01 11.644 113.206 13.602C114.437 15.56 115 17.7241 115 20.0943C115 22.4989 114.437 24.6287 113.206 26.5867C112.01 28.5447 110.427 30.1248 108.422 31.2928C106.416 32.4607 104.2 33.0447 101.773 33.0447C99.3454 33.0447 97.1291 32.4607 95.1239 31.2928C93.0835 30.1248 91.5005 28.5447 90.3396 26.5867C89.1083 24.6287 88.5103 22.4989 88.5103 20.0943C88.5103 17.7241 89.1083 15.56 90.3396 13.602C91.5005 11.644 93.0835 10.0982 95.1239 8.93029C97.1291 7.76235 99.3454 7.14404 101.773 7.14404C104.2 7.14404 106.416 7.76235 108.422 8.93029ZM97.3402 12.7089C96.0385 13.4646 94.9832 14.4951 94.2093 15.8005C93.4001 17.0715 93.0132 18.5142 93.0132 20.0943C93.0132 21.6745 93.4001 23.1172 94.2093 24.4226C94.9832 25.6936 96.0385 26.7241 97.3402 27.4798C98.677 28.2699 100.155 28.6477 101.773 28.6477C103.391 28.6477 104.868 28.2699 106.17 27.4798C107.472 26.7241 108.562 25.6936 109.336 24.4226C110.11 23.1172 110.497 21.6745 110.497 20.0943C110.497 18.5142 110.11 17.0715 109.336 15.8005C108.562 14.4951 107.472 13.4646 106.17 12.7089C104.868 11.9532 103.391 11.5753 101.773 11.5753C100.155 11.5753 98.677 11.9532 97.3402 12.7089Z" fill="#6768AC"/>
<path d="M48.4766 33.0465H43.9736V28.6152H48.4766V33.0465Z" fill="#72CDDD"/>
<path d="M4.50292 4.39693H0V0H4.50292V4.39693Z" fill="#FACD3E"/>
<path d="M4.50292 6.7666V10.3047C4.5381 10.3047 4.92503 9.96124 5.17128 9.82383C5.8045 9.48032 6.33222 8.99941 6.96544 8.6559C7.59866 8.31239 8.24361 8.02614 8.90028 7.79713C12.7348 6.49179 17.8709 7.00706 21.1425 9.48032C22.1979 10.3047 23.0774 11.2666 23.8865 12.3314C23.9217 12.4002 24.2383 12.8124 24.2383 12.8467C27.4747 8.03758 34.2995 5.77042 39.8577 7.90018C42.2147 8.7933 44.1847 10.236 45.7326 12.194C46.999 13.7398 47.9489 15.6291 48.3007 17.5872C48.4766 18.6177 48.4413 19.6482 48.4413 20.6787C48.4648 21.8696 48.4766 23.0604 48.4766 24.2512C48.4766 24.4115 48.4766 24.5718 48.4766 24.7321V26.5184H43.9736V20.0948C43.9736 17.965 43.2349 16.0757 41.7926 14.3925C40.315 12.7437 38.4154 11.7818 36.1287 11.5414C35.7769 11.507 35.4604 11.507 35.1086 11.507C33.9125 11.507 32.6812 11.7818 31.4148 12.3658C30.1483 12.9498 29.0578 13.8085 28.108 15.0452C27.1933 16.2818 26.6656 17.6559 26.5249 19.1673C26.5249 21.3314 26.4897 23.4955 26.4897 25.6253V32.9764H21.9868V20.0604C21.9868 17.9307 21.2481 16.0757 19.8057 14.3925C18.3634 12.7437 16.4637 11.7818 14.1419 11.5414C13.8253 11.507 13.4735 11.507 13.1569 11.507C11.9608 11.507 10.6944 11.7818 9.42797 12.3658C8.1967 12.9498 7.07096 13.8085 6.15631 15.0108C5.20648 16.2131 4.6788 17.5872 4.53809 19.1329C4.53809 21.2971 4.50292 23.4268 4.50292 25.5566V32.9764H0V6.7666H4.50292Z" fill="#6768AC"/>
</svg>
