<?xml version="1.0" encoding="utf-8"?>
<!-- Generator: Adobe Illustrator 27.8.1, SVG Export Plug-In . SVG Version: 6.00 Build 0)  -->
<svg version="1.1" id="Layer_1" xmlns="http://www.w3.org/2000/svg" xmlns:xlink="http://www.w3.org/1999/xlink" x="0px" y="0px"
	 viewBox="0 0 110 35" style="enable-background:new 0 0 110 35;" xml:space="preserve">
<style type="text/css">
	.st0{fill:#FFFFFF;}
	.st1{fill:#EC2B84;}
	.st2{fill:#4CBC94;}
</style>
<g>
	<path class="st0" d="M95.52,18.98c0-0.11,0-0.21,0-0.32c0-0.48-0.03-0.98-0.12-1.48c-0.2-1.12-0.71-2.23-1.48-3.2
		c-0.9-1.15-2.04-2-3.39-2.53c-2.96-1.17-6.63-0.11-8.65,2.39c-0.45-0.59-0.91-1.06-1.4-1.45c-1.83-1.42-4.74-1.84-7.08-1.01
		c-0.39,0.14-0.77,0.31-1.12,0.51c-0.21,0.12-0.39,0.25-0.57,0.37l-0.99,0.99c-1.58,1.58-2.47,3.72-2.47,5.96v7.06h3.37v-4.57
		c0-1.18,0.01-2.39,0.03-3.55c0.06-0.76,0.31-1.43,0.77-2.04c0.45-0.59,0.99-1.05,1.62-1.34c0.61-0.29,1.23-0.43,1.83-0.43
		c0.16,0,0.32,0,0.46,0.02l0.02,0c1.14,0.12,2.08,0.6,2.78,1.43c0.72,0.85,1.06,1.78,1.06,2.85l0.01,2.76h3.37c0,0,0-1.98,0.02-3.12
		l0-0.11c0.06-0.75,0.31-1.42,0.78-2.04c0.44-0.6,0.98-1.05,1.62-1.35c0.61-0.29,1.22-0.43,1.82-0.43c0.17,0,0.33,0,0.48,0.02
		l0.02,0c1.13,0.12,2.07,0.6,2.78,1.43c0.73,0.86,1.08,1.8,1.08,2.88v3.23h3.37l0-0.65c0-0.06,0-0.13,0-0.19l0-0.09
		C95.52,20.31,95.52,19.66,95.52,18.98z"/>
	<rect x="92.15" y="23.07" class="st1" width="3.37" height="3.36"/>
	<rect x="68.26" y="9.02" class="st2" width="3.32" height="3.32"/>
	<path class="st0" d="M30.12,10.69c0.02-1.51-0.43-3-1.34-4.21c-0.01-0.01-0.01-0.02-0.02-0.03c-0.75-1-1.68-1.79-2.78-2.35
		c-1.13-0.59-2.35-0.88-3.65-0.88c-1.3,0-2.52,0.3-3.65,0.88c-1.11,0.57-2.05,1.36-2.8,2.35c-0.66,0.88-0.93,1.47-1.18,2.56
		c0,0,3.68,0,3.68,0c0.02,0,0.14-0.31,0.16-0.34c0.06-0.12,0.13-0.23,0.21-0.34c0.15-0.22,0.33-0.42,0.54-0.6
		c0.41-0.35,0.91-0.64,1.42-0.81c0.52-0.17,1.07-0.2,1.62-0.2c1.06,0,1.96,0.3,2.75,0.91c0.01,0,0.01,0.01,0.02,0.01
		c0.86,0.69,1.33,1.74,1.33,2.83v1.76c-0.1-0.06-0.2-0.13-0.31-0.19c-1.18-0.69-2.49-1.05-3.9-1.05c-1.41,0-2.72,0.35-3.9,1.05
		c-1.16,0.67-2.1,1.61-2.8,2.77c-0.7,1.16-1.06,2.46-1.06,3.86c0,1.41,0.36,2.71,1.06,3.85c0.69,1.17,1.61,2.08,2.8,2.79
		c1.17,0.69,2.48,1.03,3.9,1.03c1.42,0,2.73-0.35,3.9-1.04c1.19-0.71,2.11-1.62,2.8-2.78c0.62-1.01,1.19-2.96,1.19-4.19V10.69z
		 M26.58,18.67c0,0.81-0.19,1.52-0.58,2.17c-0.38,0.64-0.91,1.16-1.57,1.56c-0.66,0.39-1.4,0.58-2.2,0.58c-0.79,0-1.53-0.2-2.2-0.58
		c-0.67-0.39-1.18-0.9-1.57-1.56c-0.39-0.65-0.58-1.36-0.58-2.17c0-0.81,0.19-1.52,0.57-2.17c0.4-0.66,0.93-1.18,1.58-1.56l0,0
		c0.66-0.38,1.38-0.57,2.2-0.57c0.82,0,1.54,0.19,2.19,0.57c0.65,0.39,1.19,0.91,1.58,1.56c0.19,0.32,0.34,0.66,0.43,1.02l0.04,0.18
		C26.55,18.01,26.58,18.33,26.58,18.67z"/>
	<path class="st0" d="M45.36,13.38c-1.43-1.47-3.47-2.34-5.52-2.37c-0.92-0.02-1.83,0.14-2.69,0.47c-1.35,0.53-2.49,1.38-3.39,2.53
		c-0.77,0.98-1.28,2.09-1.48,3.2c-0.09,0.5-0.12,1.69-0.12,1.79l-0.02,2.32h3.37l0.02-2.64c0.08-1.05,0.35-2.02,1.08-2.88
		c0.71-0.83,1.65-1.31,2.78-1.43l0.02,0c0.15-0.02,0.31-0.02,0.48-0.02c0.59,0,1.21,0.15,1.82,0.43c0.63,0.3,1.18,0.75,1.62,1.35
		c0.46,0.63,0.72,1.3,0.78,2.04l0,0.11c0.01,1.14,0.02,2.31,0.02,3.46v2.05l-0.01,0.85c-0.01,1.09-0.51,2.12-1.37,2.79
		c-0.03,0.03-0.07,0.05-0.1,0.08c-0.77,0.6-1.63,1.1-2.63,1.1c-1.09,0-2.33-0.33-3.11-1.13l-0.47-0.5l-1.93,2.46l0.31,0.29
		c0.69,0.64,1.48,1.14,2.36,1.49c0.88,0.36,1.83,0.55,2.84,0.55c1.27,0,2.41-0.27,3.49-0.84c1.05-0.55,1.94-1.31,2.65-2.26
		c0.05-0.07,0.11-0.14,0.16-0.22c0.79-1.13,1.17-2.48,1.17-3.85v-0.69c0-2.09,0-3.83,0-4.6C47.48,17.09,46.95,15.02,45.36,13.38z"/>
	<path class="st0" d="M51.58,13.41c1.43-1.47,3.47-2.34,5.52-2.37c0.92-0.02,1.83,0.14,2.69,0.47c1.35,0.53,2.49,1.38,3.39,2.53
		c0.77,0.98,1.28,2.09,1.48,3.2c0.09,0.5,0.11,0.99,0.12,1.48c0,0.11,0,0.21,0,0.32c0,0.67,0,1.33,0,1.99l0,0.09
		c0,0.06,0,0.13,0,0.19l0,0.12h-3.37l0-2.71c0-1.08-0.35-2.02-1.08-2.88c-0.71-0.83-1.65-1.31-2.78-1.43l-0.02,0
		c-0.15-0.02-0.31-0.02-0.48-0.02c-0.59,0-1.21,0.15-1.82,0.43c-0.63,0.3-1.18,0.75-1.62,1.35c-0.46,0.63-0.72,1.3-0.78,2.04l0,0.11
		c-0.01,1.14-0.02,2.31-0.02,3.46v2.12c0,2.34,1.9,4.23,4.23,4.23h7.72v3.53h-8.35c-3.85,0-6.97-3.12-6.97-6.97v-5.35
		C49.45,17.12,49.98,15.06,51.58,13.41z"/>
</g>
</svg>
